<svg xmlns="http://www.w3.org/2000/svg" viewBox="0 0 64 64" width="64" height="64">
  <path d="M18 20 C18 20 14 24 14 30 C14 36 18 38 22 36 L24 44 L40 44 L42 36 C46 38 50 36 50 30 C50 24 46 20 46 20 L44 16 L20 16 Z" fill="#F1C40F"/>
  <rect x="24" y="44" width="16" height="4" fill="#F1C40F"/>
  <rect x="20" y="48" width="24" height="6" rx="2" fill="#BDC3C7"/>
  <rect x="22" y="50" width="20" height="2" fill="#95A5A6"/>
  <circle cx="32" cy="30" r="6" fill="#FFFFFF"/>
  <text x="32" y="33" text-anchor="middle" font-size="8" font-weight="bold" fill="#F1C40F">AI</text>
  <path d="M26 18 L26 12 L28 14 L30 10 L32 14 L34 10 L36 14 L38 12 L38 18" stroke="#E67E22" stroke-width="1.5" fill="none"/>
</svg>
